<svg width="247" height="36" viewBox="0 0 247 36" fill="none" xmlns="http://www.w3.org/2000/svg">
<g clip-path="url(#clip0_1427_57948)">
<path d="M32.7358 0H13.9948C13.9948 0 11.7999 0 10.4773 0C10.2147 0 9.95206 0.00981194 9.68004 0.0294358C5.77801 0.35323 3.82699 2.20769 2.87962 3.6991C1.6321 5.6713 1.36946 8.21259 2.15737 10.695C3.18916 13.933 6.07817 23.0286 6.07817 23.0286L0 27.4734L0.356436 28.435C0.384575 28.5135 1.08807 30.3581 2.65451 32.193C4.77436 34.6852 7.48515 36 10.4867 36H29.4059L36 7.70237L32.7358 0Z" fill="#FC0001"/>
<path d="M8.24493 8.61494C7.77593 6.58386 10.8994 4.79809 12.4284 8.31077L16.9026 6.74086C16.9026 6.74086 15.7207 0.853693 9.77385 1.34429C3.827 1.83489 2.11048 6.368 3.35801 10.2732C5.29964 16.3762 12.7191 23.0875 13.4883 27.6501C13.8729 29.9559 9.30486 31.9673 5.65608 24.942L1.52893 27.9641C1.52893 27.9641 4.56801 36.0786 12.4846 34.4988C19.2569 33.1448 20.3544 27.1987 17.259 22.4203C13.6946 16.9355 8.71392 10.6558 8.24493 8.61494Z" fill="white"/>
<path d="M31.8636 1.31482H13.9949C15.0829 1.92316 15.8521 2.75717 16.368 3.51269C17.2216 4.73919 17.578 5.96568 17.6812 6.3974H21.8458V33.7335H27.7645V6.3974H33.6833L31.8542 1.31482H31.8636Z" fill="white"/>
<path d="M45.699 7.07159L49.4088 14.4387H51.1279V3.80072H49.4389V11.2188L45.699 3.80072H44V14.4387H45.699V7.07159Z" fill="white"/>
<path d="M54.8577 9.7209H58.4871V14.4387H60.2364V3.80072H58.4871V8.22302H54.8577V3.80072H53.0984V14.4387H54.8577V9.7209Z" fill="white"/>
<path d="M66.6305 3.14859L65.223 0.937439H63.2424L65.1828 3.14859H66.6305Z" fill="white"/>
<path d="M64.107 11.983H67.3141L67.9977 14.4489H69.8375L66.4897 3.80072H64.9314L61.5936 14.4489H63.4234L64.107 11.983ZM65.7055 6.20547L66.8918 10.4953H64.5192L65.7055 6.20547Z" fill="white"/>
<path d="M75.8092 14.4387L77.5485 10.5666L79.2777 14.4387H81.3085L78.6242 9.06876L81.2482 3.80072H79.2777L77.5988 7.59127L75.8796 3.80072H73.8689L76.513 9.04838L73.8086 14.4387H75.8092Z" fill="white"/>
<path d="M87.4511 11.1882C87.4511 11.6977 87.3908 12.0849 87.2601 12.3702C87.1294 12.6555 86.9484 12.8389 86.7072 12.951C86.4659 13.0631 86.1844 13.114 85.8426 13.114C85.5007 13.114 85.2192 13.0631 84.978 12.951C84.7367 12.8389 84.5557 12.6555 84.4351 12.3702C84.3144 12.0849 84.2441 11.6977 84.2441 11.1882V3.80072H82.4948V11.1882C82.4948 12.0034 82.6355 12.6555 82.927 13.1548C83.2186 13.6541 83.6107 14.0107 84.1134 14.2451C84.616 14.4693 85.1891 14.5915 85.8325 14.5915C86.4759 14.5915 87.0188 14.4795 87.5215 14.2451C88.0242 14.0107 88.4364 13.6541 88.738 13.1548C89.0396 12.6555 89.1904 12.0034 89.1904 11.1882V3.80072H87.4411V11.1882H87.4511Z" fill="white"/>
<path d="M98.4798 0.0917358H97.0019L96.077 2.03796H97.1125L98.4798 0.0917358Z" fill="white"/>
<path d="M92.6186 11.983H95.8257L96.5093 14.4489H98.3491L95.0013 3.80072H93.443L90.1052 14.4489H91.935L92.6186 11.983ZM94.2171 6.20547L95.4034 10.4953H93.0308L94.2171 6.20547Z" fill="white"/>
<path d="M94.2372 2.13989L95.142 3.16904H96.5495L94.76 1.36548H93.7144L91.9249 3.16904H93.3123L94.2372 2.13989Z" fill="white"/>
<path d="M98.0676 5.28841H100.712V14.4387H102.461V5.28841H105.135V3.80072H102.461H100.712H98.0676V5.28841Z" fill="white"/>
<path d="M115.058 9.18085C114.877 9.04838 114.666 8.95667 114.435 8.89554C114.525 8.85478 114.636 8.82421 114.716 8.76307C115.078 8.52871 115.349 8.23321 115.53 7.86638C115.711 7.49956 115.802 7.10216 115.802 6.67419C115.802 6.1749 115.732 5.74694 115.591 5.3903C115.45 5.03366 115.239 4.72797 114.967 4.49361C114.696 4.25925 114.364 4.07584 113.982 3.96375C113.6 3.85166 113.158 3.79053 112.665 3.79053H109.539V14.4387H112.846C113.51 14.4387 114.063 14.3164 114.535 14.0821C114.998 13.8477 115.36 13.5013 115.611 13.0325C115.862 12.574 115.983 12.0034 115.983 11.3207C115.983 10.8825 115.912 10.4749 115.762 10.0979C115.611 9.7209 115.38 9.40502 115.058 9.16047V9.18085ZM112.665 5.2884C112.987 5.2884 113.238 5.33935 113.449 5.44125C113.661 5.54314 113.801 5.70618 113.902 5.93035C114.002 6.15452 114.053 6.43983 114.053 6.78628C114.053 7.10216 114.002 7.37728 113.892 7.60145C113.781 7.82562 113.63 7.99885 113.419 8.11093C113.208 8.22302 112.967 8.28416 112.665 8.28416H111.298V5.2884H112.675H112.665ZM114.073 12.1868C113.972 12.4313 113.821 12.6249 113.62 12.7574C113.419 12.8899 113.158 12.9612 112.846 12.9612H111.288V9.64957H112.906C113.228 9.64957 113.48 9.7209 113.671 9.85336C113.862 9.98583 114.002 10.1896 114.093 10.4342C114.183 10.6889 114.224 10.9844 114.224 11.3309C114.224 11.6773 114.173 11.9422 114.073 12.1868Z" fill="white"/>
<path d="M121.02 0.988395C121.09 1.02915 121.15 1.0801 121.191 1.15143C121.231 1.22276 121.251 1.30427 121.251 1.39598C121.251 1.50807 121.221 1.59977 121.171 1.6711C121.11 1.74243 121.03 1.79338 120.909 1.83413C120.788 1.87489 120.638 1.89527 120.447 1.91565L120.507 2.955H121.744V2.46589C121.955 2.42513 122.156 2.32324 122.337 2.1602C122.518 1.99717 122.618 1.73224 122.618 1.38579C122.618 1.17181 122.568 0.978205 122.477 0.804981C122.387 0.631758 122.256 0.489103 122.075 0.366827C121.894 0.244551 121.673 0.152845 121.402 0.0917067C121.13 0.0305689 120.819 0 120.457 0L120.417 0.896688C120.537 0.896688 120.658 0.896688 120.758 0.927257C120.859 0.947636 120.949 0.978205 121.02 1.01896V0.988395Z" fill="white"/>
<path d="M119.492 11.983H122.699L123.382 14.4489H125.222L121.874 3.80072H120.316L116.978 14.4489H118.808L119.492 11.983ZM121.09 6.20547L122.276 10.4953H119.904L121.09 6.20547Z" fill="white"/>
<path d="M128.117 7.07159L131.817 14.4387H133.536V3.80072H131.847V11.2188L128.117 3.80072H126.418V14.4387H128.117V7.07159Z" fill="white"/>
<path d="M46.8552 24.6997C46.9055 24.3124 46.9758 24.0068 47.0864 23.7724C47.197 23.538 47.3378 23.3648 47.5087 23.2629C47.6796 23.161 47.9008 23.1101 48.1521 23.1101C48.5241 23.1101 48.8257 23.1712 49.0469 23.2935C49.268 23.4158 49.4289 23.6196 49.5194 23.9151C49.6098 24.2106 49.64 24.6079 49.6098 25.1276H52.3444C52.3243 24.2411 52.1433 23.4871 51.8216 22.8451C51.4999 22.2032 51.0173 21.7243 50.4041 21.388C49.7908 21.0518 49.0368 20.8785 48.1521 20.8785C47.5187 20.8785 46.9457 21.0008 46.4329 21.2352C45.9202 21.4695 45.4779 21.816 45.126 22.2745C44.7641 22.7331 44.4926 23.2833 44.2916 23.9252C44.1005 24.5774 44 25.3008 44 26.116V27.7565C44 28.5717 44.0905 29.3054 44.2714 29.9575C44.4524 30.5995 44.7239 31.1497 45.0757 31.6082C45.4276 32.0566 45.8699 32.403 46.3927 32.6476C46.9155 32.8819 47.5087 33.0042 48.1923 33.0042C49.0267 33.0042 49.7606 32.8412 50.384 32.5253C51.0073 32.2094 51.4898 31.7407 51.8317 31.1089C52.1735 30.4874 52.3444 29.7333 52.3343 28.8468H49.5998C49.63 29.3665 49.5797 29.7639 49.4691 30.039C49.3585 30.3141 49.1876 30.5077 48.9765 30.6096C48.7654 30.7115 48.4939 30.7625 48.1822 30.7625C47.8706 30.7625 47.6494 30.7115 47.4685 30.6096C47.2875 30.5077 47.1367 30.3345 47.0362 30.1002C46.9356 29.8658 46.8652 29.5601 46.825 29.1729C46.7848 28.7857 46.7647 28.317 46.7647 27.7464V26.0854C46.7647 25.525 46.7848 25.0563 46.8351 24.6793L46.8552 24.6997Z" fill="white"/>
<path d="M59.2109 25.739H56.2853V21.062H53.5508V32.8412H56.2853V27.9196H59.2109V32.8412H61.9454V21.062H59.2109V25.739Z" fill="white"/>
<path d="M66.369 21.062H63.6445V32.8412H66.369V21.062Z" fill="white"/>
<path d="M65.9669 20.4404L68.1887 17.9032H65.3536L63.7651 20.4404H65.9669Z" fill="white"/>
<path d="M73.7382 28.3883L70.8226 21.062H68.0981V32.8412H70.8226V25.5148L73.7382 32.8412H76.4626V21.062H73.7382V28.3883Z" fill="white"/>
<path d="M83.7013 25.739H80.7757V21.062H78.0411V32.8412H80.7757V27.9196H83.7013V32.8412H86.4358V21.062H83.7013V25.739Z" fill="white"/>
<path d="M93.6241 21.062H90.8895V23.2527H93.6241V32.8412H96.3687V23.2527H99.1837V21.062H96.3687H93.6241Z" fill="white"/>
<path d="M107.186 27.4305C107.488 27.135 107.729 26.758 107.89 26.3096C108.051 25.8613 108.141 25.2906 108.141 24.6181C108.141 23.8437 107.99 23.1916 107.679 22.6617C107.377 22.1319 106.935 21.7345 106.362 21.4593C105.789 21.1842 105.115 21.0518 104.341 21.0518H100.36V32.831H103.094V28.6736H103.869L105.517 32.831H108.443V32.7087L106.482 27.9298C106.734 27.7769 106.975 27.6139 107.176 27.4203L107.186 27.4305ZM103.104 23.2527H104.351C104.592 23.2527 104.783 23.3139 104.934 23.4463C105.085 23.5788 105.206 23.7622 105.286 24.0068C105.367 24.2513 105.407 24.5366 105.407 24.8831C105.407 25.2295 105.367 25.5046 105.286 25.7492C105.206 25.9937 105.075 26.1771 104.914 26.2994C104.753 26.4217 104.542 26.493 104.291 26.493H103.104V23.2527Z" fill="white"/>
<path d="M111.147 33.4933C110.705 33.4933 110.343 33.6054 110.072 33.8398C109.79 34.0742 109.659 34.3595 109.659 34.7059C109.659 35.0524 109.8 35.3377 110.072 35.572C110.353 35.8064 110.705 35.9185 111.147 35.9185C111.59 35.9185 111.952 35.8064 112.223 35.572C112.495 35.3479 112.635 35.0524 112.635 34.7059C112.635 34.3595 112.495 34.0742 112.223 33.8398C111.942 33.6156 111.59 33.4933 111.147 33.4933Z" fill="white"/>
<path d="M112.494 21.062H109.77V32.8412H112.494V21.062Z" fill="white"/>
<path d="M125.252 22.2033C124.87 21.7651 124.408 21.439 123.885 21.2251C123.362 21.0111 122.779 20.899 122.136 20.899C121.492 20.899 120.909 21.0111 120.376 21.2251C119.853 21.439 119.401 21.7753 119.019 22.2033C118.637 22.6414 118.345 23.1815 118.134 23.8234C117.923 24.4654 117.823 25.2194 117.823 26.0651V27.8381C117.823 28.6941 117.923 29.4379 118.134 30.0799C118.345 30.7218 118.637 31.2618 119.019 31.6898C119.401 32.128 119.853 32.454 120.386 32.668C120.909 32.882 121.502 32.9941 122.146 32.9941C122.296 32.9941 122.427 32.9635 122.568 32.9533L124.749 34.9811L126.449 33.4934L124.86 32.0465C125.001 31.9344 125.142 31.8223 125.262 31.6796C125.644 31.2415 125.946 30.7116 126.157 30.0697C126.368 29.4277 126.469 28.6839 126.469 27.8279V26.0549C126.469 25.199 126.368 24.4552 126.157 23.8132C125.946 23.1713 125.654 22.6312 125.262 22.1931L125.252 22.2033ZM120.969 30.1002C120.849 29.8659 120.748 29.5602 120.698 29.1832C120.638 28.8061 120.607 28.368 120.607 27.8381V26.0549C120.607 25.5251 120.638 25.0767 120.698 24.6997C120.758 24.3227 120.849 24.0272 120.969 23.7928C121.09 23.5585 121.251 23.3954 121.442 23.2834C121.633 23.1713 121.864 23.1203 122.136 23.1203C122.387 23.1203 122.618 23.1713 122.809 23.2834C123 23.3954 123.161 23.5585 123.292 23.7928C123.422 24.0272 123.523 24.3227 123.583 24.6997C123.644 25.0767 123.684 25.5251 123.684 26.0549V27.8381C123.684 28.3578 123.654 28.8061 123.583 29.1832C123.513 29.5602 123.422 29.8557 123.292 30.1002C123.161 30.3346 123 30.5078 122.809 30.6199C122.618 30.732 122.387 30.7829 122.136 30.7829C121.864 30.7829 121.633 30.732 121.442 30.6199C121.251 30.5078 121.09 30.3346 120.969 30.1002Z" fill="white"/>
<path d="M132.973 29.0812C132.973 29.5703 132.933 29.9371 132.853 30.1817C132.772 30.4262 132.642 30.5995 132.471 30.6912C132.3 30.7829 132.069 30.8236 131.797 30.8236C131.526 30.8236 131.294 30.7829 131.124 30.6912C130.943 30.6096 130.812 30.4364 130.721 30.1817C130.631 29.9269 130.591 29.5601 130.591 29.0812V21.062H127.846V29.0812C127.846 29.9983 128.017 30.7421 128.349 31.3229C128.681 31.9037 129.143 32.3317 129.736 32.5966C130.329 32.8616 131.023 33.0042 131.807 33.0042C132.591 33.0042 133.295 32.8717 133.878 32.5966C134.461 32.3215 134.924 31.9037 135.245 31.3229C135.567 30.7421 135.728 29.9983 135.728 29.0812V21.062H132.993V29.0812H132.973Z" fill="white"/>
<path d="M141.388 19.5437L142.273 20.4812H143.912L142.001 18.7082H140.795L138.875 20.4812H140.513L141.388 19.5437Z" fill="white"/>
<path d="M144.545 22.2135C144.163 21.7855 143.711 21.4594 143.188 21.2352C142.655 21.0111 142.072 20.899 141.438 20.899C140.805 20.899 140.212 21.0111 139.679 21.2352C139.156 21.4594 138.694 21.7855 138.322 22.2135C137.94 22.6414 137.648 23.1815 137.437 23.8336C137.226 24.4756 137.125 25.2296 137.125 26.0753V27.8585C137.125 28.7042 137.226 29.4481 137.437 30.09C137.648 30.732 137.94 31.272 138.322 31.7C138.704 32.1382 139.156 32.4642 139.689 32.6782C140.212 32.8922 140.805 33.0043 141.448 33.0043C142.092 33.0043 142.665 32.8922 143.198 32.6782C143.721 32.4642 144.173 32.1382 144.555 31.7C144.937 31.2618 145.239 30.732 145.44 30.09C145.641 29.4481 145.751 28.7042 145.751 27.8585V26.0753C145.751 25.2296 145.651 24.4857 145.44 23.8336C145.229 23.1815 144.937 22.6414 144.555 22.2135H144.545ZM142.977 27.8585C142.977 28.3782 142.946 28.8265 142.876 29.1934C142.816 29.5602 142.715 29.8659 142.595 30.1002C142.474 30.3346 142.313 30.5078 142.112 30.6199C141.911 30.732 141.69 30.7829 141.438 30.7829C141.187 30.7829 140.936 30.732 140.745 30.6199C140.544 30.5078 140.383 30.3346 140.262 30.1002C140.142 29.8659 140.041 29.5602 139.991 29.1934C139.93 28.8265 139.9 28.3782 139.9 27.8585V26.0651C139.9 25.5353 139.93 25.0869 139.991 24.7099C140.051 24.3329 140.142 24.0374 140.262 23.803C140.383 23.5687 140.544 23.4056 140.735 23.2936C140.926 23.1815 141.157 23.1305 141.428 23.1305C141.7 23.1305 141.911 23.1815 142.102 23.2936C142.293 23.4056 142.454 23.5687 142.585 23.803C142.715 24.0374 142.806 24.3329 142.876 24.7099C142.946 25.0869 142.977 25.5353 142.977 26.0651V27.8585Z" fill="white"/>
<path d="M143.399 19.5233H144.726L146.435 17.2917H144.605L143.399 19.5233Z" fill="white"/>
<path d="M149.823 24.6997C149.873 24.3124 149.944 24.0068 150.054 23.7724C150.165 23.538 150.306 23.3648 150.477 23.2629C150.647 23.161 150.869 23.1101 151.12 23.1101C151.492 23.1101 151.794 23.1712 152.015 23.2935C152.236 23.4158 152.397 23.6196 152.487 23.9151C152.578 24.2106 152.608 24.6079 152.578 25.1276H155.312C155.292 24.2411 155.111 23.4871 154.79 22.8451C154.468 22.2032 153.985 21.7243 153.372 21.388C152.759 21.0518 152.005 20.8785 151.12 20.8785C150.487 20.8785 149.914 21.0008 149.401 21.2352C148.888 21.4695 148.446 21.816 148.094 22.2745C147.732 22.7331 147.461 23.2833 147.259 23.9252C147.068 24.5774 146.968 25.3008 146.968 26.116V27.7565C146.968 28.5717 147.058 29.3054 147.239 29.9575C147.42 30.5995 147.692 31.1497 148.044 31.6082C148.395 32.0566 148.838 32.403 149.361 32.6476C149.883 32.8819 150.477 33.0042 151.16 33.0042C151.995 33.0042 152.729 32.8412 153.352 32.5253C153.975 32.2094 154.458 31.7407 154.8 31.1089C155.141 30.4874 155.312 29.7333 155.302 28.8468H152.568C152.598 29.3665 152.548 29.7639 152.437 30.039C152.326 30.3141 152.156 30.5077 151.944 30.6096C151.733 30.7115 151.462 30.7625 151.15 30.7625C150.838 30.7625 150.617 30.7115 150.436 30.6096C150.255 30.5077 150.105 30.3345 150.004 30.1002C149.904 29.8658 149.833 29.5601 149.793 29.1729C149.753 28.7857 149.733 28.317 149.733 27.7464V26.0854C149.733 25.525 149.753 25.0563 149.803 24.6793L149.823 24.6997Z" fill="white"/>
<path d="M164.37 28.5005H165.758V30.4059C165.697 30.4365 165.627 30.4772 165.537 30.5486C165.446 30.6199 165.336 30.681 165.205 30.732C165.074 30.7829 164.903 30.8135 164.702 30.8135C164.37 30.8135 164.099 30.7626 163.868 30.6607C163.637 30.5588 163.466 30.3957 163.335 30.1716C163.204 29.9474 163.104 29.6519 163.043 29.2851C162.983 28.9182 162.953 28.4597 162.953 27.9298V25.9632C162.953 25.4232 162.983 24.9647 163.053 24.5978C163.124 24.231 163.214 23.9253 163.345 23.7011C163.476 23.477 163.637 23.3139 163.828 23.2222C164.019 23.1203 164.23 23.0796 164.481 23.0796C164.783 23.0796 165.034 23.1407 165.235 23.2528C165.436 23.3649 165.587 23.5585 165.687 23.8336C165.798 24.0985 165.858 24.4654 165.878 24.9137H168.492C168.472 24.068 168.321 23.3445 168.02 22.7535C167.718 22.1625 167.276 21.704 166.673 21.3779C166.069 21.062 165.305 20.899 164.38 20.899C163.757 20.899 163.194 21.0009 162.681 21.2149C162.169 21.4187 161.726 21.7345 161.354 22.1523C160.982 22.5701 160.691 23.0999 160.49 23.7419C160.289 24.3838 160.178 25.1379 160.178 25.9938V27.94C160.178 28.8061 160.279 29.5602 160.48 30.1919C160.681 30.8237 160.972 31.3536 161.344 31.7713C161.716 32.1891 162.179 32.505 162.702 32.7088C163.224 32.9126 163.828 33.0145 164.501 33.0145C165.215 33.0145 165.848 32.9228 166.371 32.7393C166.904 32.5559 167.336 32.3521 167.688 32.1076C168.04 31.863 168.301 31.6592 168.482 31.4758V26.5542H164.36V28.5005H164.37Z" fill="white"/>
<path d="M172.815 21.062H170.091V32.8412H172.815V21.062Z" fill="white"/>
<path d="M179.39 21.062H177.551L173.961 32.8412H176.897L177.41 30.6402H180.245L180.758 32.8412H183.693L180.104 21.062H179.39ZM177.933 28.4494L178.837 24.5468L179.742 28.4494H177.933Z" fill="white"/>
<path d="M191.605 23.2018C191.766 23.0898 191.957 23.0388 192.188 23.0388C192.44 23.0388 192.651 23.0999 192.812 23.2324C192.973 23.3649 193.083 23.5381 193.164 23.7623C193.234 23.9864 193.274 24.2514 193.274 24.5469H195.999C195.999 23.803 195.838 23.1611 195.526 22.6108C195.204 22.0606 194.772 21.6428 194.209 21.3371C193.646 21.0314 193.003 20.8888 192.269 20.8888C191.716 20.8888 191.203 20.9703 190.741 21.1232C190.268 21.276 189.866 21.5002 189.524 21.7855C189.182 22.0708 188.911 22.4172 188.72 22.8248C188.529 23.2324 188.428 23.6909 188.428 24.2004C188.428 24.7099 188.519 25.1888 188.72 25.5862C188.911 25.9836 189.162 26.3301 189.484 26.6256C189.806 26.9211 190.158 27.1758 190.56 27.3898C190.962 27.6038 191.364 27.8076 191.776 27.9808C192.108 28.1234 192.369 28.2661 192.57 28.3986C192.771 28.531 192.912 28.6635 193.013 28.7858C193.113 28.908 193.174 29.0507 193.214 29.2035C193.244 29.3564 193.264 29.5194 193.264 29.7028C193.264 29.9168 193.234 30.1104 193.184 30.2836C193.133 30.4569 193.033 30.5995 192.902 30.7014C192.771 30.8033 192.58 30.8644 192.329 30.8644C192.068 30.8644 191.837 30.8339 191.656 30.7727C191.475 30.7116 191.324 30.6097 191.213 30.4671C191.103 30.3244 191.012 30.1308 190.962 29.8964C190.912 29.6621 190.881 29.3666 190.881 29.0201H188.137C188.137 29.713 188.257 30.3142 188.499 30.8237C188.74 31.3332 189.062 31.7408 189.464 32.0566C189.866 32.3827 190.318 32.6171 190.811 32.7699C191.314 32.9228 191.816 33.0043 192.329 33.0043C192.892 33.0043 193.405 32.9329 193.847 32.7903C194.29 32.6476 194.682 32.4337 195.003 32.1483C195.325 31.863 195.566 31.5166 195.737 31.109C195.908 30.7014 195.989 30.2327 195.989 29.7028C195.989 29.2035 195.918 28.7654 195.777 28.368C195.637 27.9706 195.426 27.6241 195.154 27.3083C194.883 26.9924 194.531 26.7173 194.129 26.4727C193.727 26.2282 193.254 26.004 192.731 25.8104C192.51 25.6983 192.309 25.5964 192.118 25.4741C191.927 25.362 191.766 25.2398 191.625 25.1175C191.485 24.9952 191.374 24.8628 191.294 24.7201C191.213 24.5774 191.173 24.4144 191.173 24.2412C191.173 24.0272 191.213 23.8234 191.294 23.6502C191.374 23.4668 191.495 23.3241 191.645 23.2222L191.605 23.2018Z" fill="white"/>
<path d="M206.354 21.7549C206.314 22.1319 206.193 22.4274 206.002 22.6312C205.841 22.7942 205.57 22.8757 205.218 22.9063V21.0518H202.483V28.745C202.483 29.2341 202.443 29.6213 202.363 29.927C202.282 30.2327 202.151 30.4568 201.981 30.5995C201.81 30.7421 201.578 30.8135 201.307 30.8135C201.036 30.8135 200.804 30.7421 200.633 30.5995C200.452 30.4568 200.322 30.2327 200.231 29.927C200.141 29.6213 200.101 29.2239 200.101 28.745V21.0518H197.356V28.745C197.356 29.662 197.527 30.4365 197.859 31.0682C198.19 31.7 198.653 32.1789 199.246 32.5049C199.839 32.831 200.533 32.994 201.317 32.994C202.101 32.994 202.805 32.831 203.388 32.5049C203.971 32.1789 204.434 31.7 204.755 31.0682C205.077 30.4365 205.238 29.662 205.238 28.745V24.2513C205.911 24.2208 206.454 24.0781 206.846 23.803C207.279 23.4973 207.58 23.0592 207.751 22.4783C207.922 21.8975 208.003 21.2046 208.003 20.3895H206.434C206.434 20.9091 206.414 21.3677 206.374 21.7447L206.354 21.7549Z" fill="white"/>
<path d="M201.709 33.5748C201.267 33.5748 200.905 33.6869 200.633 33.9213C200.352 34.1454 200.221 34.4409 200.221 34.7874C200.221 35.1338 200.362 35.4192 200.633 35.6535C200.915 35.8777 201.267 36 201.709 36C202.151 36 202.513 35.8879 202.785 35.6535C203.066 35.4192 203.197 35.1338 203.197 34.7874C203.197 34.4409 203.056 34.1556 202.785 33.9213C202.503 33.6869 202.151 33.5748 201.709 33.5748Z" fill="white"/>
<path d="M213.331 21.062H210.586V23.2527H213.331V32.8412H216.065V23.2527H218.89V21.062H216.065H213.331Z" fill="white"/>
<path d="M225.727 25.739H222.801V21.062H220.067V32.8412H222.801V27.9196H225.727V32.8412H228.461V21.062H225.727V25.739Z" fill="white"/>
<path d="M234.343 19.1871L235.378 20.2876H237.409V20.1755L235.097 17.9032H233.599L231.327 20.1449V20.2876H233.317L234.343 19.1871Z" fill="white"/>
<path d="M234.886 21.062H233.046L229.457 32.8412H232.392L232.905 30.6402H235.74L236.253 32.8412H239.188L235.599 21.062H234.886ZM233.428 28.4494L234.333 24.5468L235.237 28.4494H233.428Z" fill="white"/>
<path d="M234.353 33.422C233.91 33.422 233.548 33.5341 233.277 33.7684C233.006 34.0028 232.865 34.2881 232.865 34.6346C232.865 34.981 233.006 35.2663 233.277 35.5007C233.548 35.735 233.91 35.8471 234.353 35.8471C234.795 35.8471 235.157 35.735 235.428 35.5007C235.7 35.2765 235.841 34.981 235.841 34.6346C235.841 34.2881 235.7 34.0028 235.428 33.7684C235.147 33.5443 234.795 33.422 234.353 33.422Z" fill="white"/>
<path d="M247 21.062H244.185H241.45H238.706V23.2527H241.45V32.8412H244.185V23.2527H247V21.062Z" fill="white"/>
</g>
<defs>
<clipPath id="clip0_1427_57948">
<rect width="247" height="36" fill="white"/>
</clipPath>
</defs>
</svg>
